<?xml version="1.0" encoding="utf-8" standalone="no"?>
<!DOCTYPE svg PUBLIC "-//W3C//DTD SVG 1.1//EN"
  "http://www.w3.org/Graphics/SVG/1.1/DTD/svg11.dtd">
<!-- Created with matplotlib (http://matplotlib.org/) -->
<svg height="144pt" version="1.1" viewBox="0 0 576 144" width="576pt" xmlns="http://www.w3.org/2000/svg" xmlns:xlink="http://www.w3.org/1999/xlink">
 <defs>
  <style type="text/css">
*{stroke-linecap:butt;stroke-linejoin:round;stroke-miterlimit:100000;}
  </style>
 </defs>
 <g id="figure_1">
  <g id="patch_1">
   <path d="M 0 144 
L 576 144 
L 576 0 
L 0 0 
z
" style="fill:#ffffff;"/>
  </g>
  <g id="axes_1">
   <g id="patch_2">
    <path d="M 72 129.6 
L 518.4 129.6 
L 518.4 14.4 
L 72 14.4 
z
" style="fill:#ffffff;"/>
   </g>
   <g id="line2d_1">
    <defs>
     <path d="M 0 3 
C 0.795609 3 1.55874 2.683901 2.12132 2.12132 
C 2.683901 1.55874 3 0.795609 3 0 
C 3 -0.795609 2.683901 -1.55874 2.12132 -2.12132 
C 1.55874 -2.683901 0.795609 -3 0 -3 
C -0.795609 -3 -1.55874 -2.683901 -2.12132 -2.12132 
C -2.683901 -1.55874 -3 -0.795609 -3 0 
C -3 0.795609 -2.683901 1.55874 -2.12132 2.12132 
C -1.55874 2.683901 -0.795609 3 0 3 
z
" id="m407c68cd93" style="stroke:#000000;stroke-width:0.5;"/>
    </defs>
    <g clip-path="url(#p3de8af1a74)">
     <use style="fill:#0000ff;stroke:#000000;stroke-width:0.5;" x="72.0" xlink:href="#m407c68cd93" y="108.79705769"/>
     <use style="fill:#0000ff;stroke:#000000;stroke-width:0.5;" x="76.464" xlink:href="#m407c68cd93" y="109.646320185"/>
     <use style="fill:#0000ff;stroke:#000000;stroke-width:0.5;" x="80.928" xlink:href="#m407c68cd93" y="95.416792454"/>
     <use style="fill:#0000ff;stroke:#000000;stroke-width:0.5;" x="85.392" xlink:href="#m407c68cd93" y="102.380009464"/>
     <use style="fill:#0000ff;stroke:#000000;stroke-width:0.5;" x="89.856" xlink:href="#m407c68cd93" y="101.456374831"/>
     <use style="fill:#0000ff;stroke:#000000;stroke-width:0.5;" x="94.32" xlink:href="#m407c68cd93" y="100.593099807"/>
     <use style="fill:#0000ff;stroke:#000000;stroke-width:0.5;" x="98.784" xlink:href="#m407c68cd93" y="106.59813841"/>
     <use style="fill:#0000ff;stroke:#000000;stroke-width:0.5;" x="103.248" xlink:href="#m407c68cd93" y="103.233989935"/>
     <use style="fill:#0000ff;stroke:#000000;stroke-width:0.5;" x="107.712" xlink:href="#m407c68cd93" y="99.9452884246"/>
     <use style="fill:#0000ff;stroke:#000000;stroke-width:0.5;" x="112.176" xlink:href="#m407c68cd93" y="102.179410827"/>
     <use style="fill:#0000ff;stroke:#000000;stroke-width:0.5;" x="116.64" xlink:href="#m407c68cd93" y="87.9592954502"/>
     <use style="fill:#0000ff;stroke:#000000;stroke-width:0.5;" x="121.104" xlink:href="#m407c68cd93" y="100.485237367"/>
     <use style="fill:#0000ff;stroke:#000000;stroke-width:0.5;" x="125.568" xlink:href="#m407c68cd93" y="96.1341032668"/>
     <use style="fill:#0000ff;stroke:#000000;stroke-width:0.5;" x="130.032" xlink:href="#m407c68cd93" y="89.4300162769"/>
     <use style="fill:#0000ff;stroke:#000000;stroke-width:0.5;" x="134.496" xlink:href="#m407c68cd93" y="91.3423645192"/>
     <use style="fill:#0000ff;stroke:#000000;stroke-width:0.5;" x="138.96" xlink:href="#m407c68cd93" y="91.7406046172"/>
     <use style="fill:#0000ff;stroke:#000000;stroke-width:0.5;" x="143.424" xlink:href="#m407c68cd93" y="87.4114512294"/>
     <use style="fill:#0000ff;stroke:#000000;stroke-width:0.5;" x="147.888" xlink:href="#m407c68cd93" y="88.199352438"/>
     <use style="fill:#0000ff;stroke:#000000;stroke-width:0.5;" x="152.352" xlink:href="#m407c68cd93" y="81.9765671109"/>
     <use style="fill:#0000ff;stroke:#000000;stroke-width:0.5;" x="156.816" xlink:href="#m407c68cd93" y="99.6839986614"/>
     <use style="fill:#0000ff;stroke:#000000;stroke-width:0.5;" x="161.28" xlink:href="#m407c68cd93" y="86.9297807693"/>
     <use style="fill:#0000ff;stroke:#000000;stroke-width:0.5;" x="165.744" xlink:href="#m407c68cd93" y="83.205070301"/>
     <use style="fill:#0000ff;stroke:#000000;stroke-width:0.5;" x="170.208" xlink:href="#m407c68cd93" y="79.6266925671"/>
     <use style="fill:#0000ff;stroke:#000000;stroke-width:0.5;" x="174.672" xlink:href="#m407c68cd93" y="76.8421415106"/>
     <use style="fill:#0000ff;stroke:#000000;stroke-width:0.5;" x="179.136" xlink:href="#m407c68cd93" y="79.0874674201"/>
     <use style="fill:#0000ff;stroke:#000000;stroke-width:0.5;" x="183.6" xlink:href="#m407c68cd93" y="75.6656754603"/>
     <use style="fill:#0000ff;stroke:#000000;stroke-width:0.5;" x="188.064" xlink:href="#m407c68cd93" y="82.5402794064"/>
     <use style="fill:#0000ff;stroke:#000000;stroke-width:0.5;" x="192.528" xlink:href="#m407c68cd93" y="75.9383124217"/>
     <use style="fill:#0000ff;stroke:#000000;stroke-width:0.5;" x="196.992" xlink:href="#m407c68cd93" y="81.3740250537"/>
     <use style="fill:#0000ff;stroke:#000000;stroke-width:0.5;" x="201.456" xlink:href="#m407c68cd93" y="76.239760458"/>
     <use style="fill:#0000ff;stroke:#000000;stroke-width:0.5;" x="205.92" xlink:href="#m407c68cd93" y="79.3858648064"/>
     <use style="fill:#0000ff;stroke:#000000;stroke-width:0.5;" x="210.384" xlink:href="#m407c68cd93" y="75.5551354786"/>
     <use style="fill:#0000ff;stroke:#000000;stroke-width:0.5;" x="214.848" xlink:href="#m407c68cd93" y="80.8402625231"/>
     <use style="fill:#0000ff;stroke:#000000;stroke-width:0.5;" x="219.312" xlink:href="#m407c68cd93" y="71.715624699"/>
     <use style="fill:#0000ff;stroke:#000000;stroke-width:0.5;" x="223.776" xlink:href="#m407c68cd93" y="76.9195298453"/>
     <use style="fill:#0000ff;stroke:#000000;stroke-width:0.5;" x="228.24" xlink:href="#m407c68cd93" y="70.9970603493"/>
     <use style="fill:#0000ff;stroke:#000000;stroke-width:0.5;" x="232.704" xlink:href="#m407c68cd93" y="81.8618833645"/>
     <use style="fill:#0000ff;stroke:#000000;stroke-width:0.5;" x="237.168" xlink:href="#m407c68cd93" y="76.8626657102"/>
     <use style="fill:#0000ff;stroke:#000000;stroke-width:0.5;" x="241.632" xlink:href="#m407c68cd93" y="68.489791183"/>
     <use style="fill:#0000ff;stroke:#000000;stroke-width:0.5;" x="246.096" xlink:href="#m407c68cd93" y="68.4494444475"/>
     <use style="fill:#0000ff;stroke:#000000;stroke-width:0.5;" x="250.56" xlink:href="#m407c68cd93" y="71.2763459995"/>
     <use style="fill:#0000ff;stroke:#000000;stroke-width:0.5;" x="255.024" xlink:href="#m407c68cd93" y="72.9042840982"/>
     <use style="fill:#0000ff;stroke:#000000;stroke-width:0.5;" x="259.488" xlink:href="#m407c68cd93" y="65.8697975539"/>
     <use style="fill:#0000ff;stroke:#000000;stroke-width:0.5;" x="263.952" xlink:href="#m407c68cd93" y="67.2892381316"/>
     <use style="fill:#0000ff;stroke:#000000;stroke-width:0.5;" x="268.416" xlink:href="#m407c68cd93" y="62.1534301929"/>
     <use style="fill:#0000ff;stroke:#000000;stroke-width:0.5;" x="272.88" xlink:href="#m407c68cd93" y="61.1657983579"/>
     <use style="fill:#0000ff;stroke:#000000;stroke-width:0.5;" x="277.344" xlink:href="#m407c68cd93" y="62.9723400191"/>
     <use style="fill:#0000ff;stroke:#000000;stroke-width:0.5;" x="281.808" xlink:href="#m407c68cd93" y="66.9521672314"/>
     <use style="fill:#0000ff;stroke:#000000;stroke-width:0.5;" x="286.272" xlink:href="#m407c68cd93" y="52.9279487812"/>
     <use style="fill:#0000ff;stroke:#000000;stroke-width:0.5;" x="290.736" xlink:href="#m407c68cd93" y="62.029012605"/>
     <use style="fill:#0000ff;stroke:#000000;stroke-width:0.5;" x="295.2" xlink:href="#m407c68cd93" y="65.2403347711"/>
     <use style="fill:#0000ff;stroke:#000000;stroke-width:0.5;" x="299.664" xlink:href="#m407c68cd93" y="55.9419296268"/>
     <use style="fill:#0000ff;stroke:#000000;stroke-width:0.5;" x="304.128" xlink:href="#m407c68cd93" y="56.9382956915"/>
     <use style="fill:#0000ff;stroke:#000000;stroke-width:0.5;" x="308.592" xlink:href="#m407c68cd93" y="60.5467008476"/>
     <use style="fill:#0000ff;stroke:#000000;stroke-width:0.5;" x="313.056" xlink:href="#m407c68cd93" y="46.7414661393"/>
     <use style="fill:#0000ff;stroke:#000000;stroke-width:0.5;" x="317.52" xlink:href="#m407c68cd93" y="59.0231660696"/>
     <use style="fill:#0000ff;stroke:#000000;stroke-width:0.5;" x="321.984" xlink:href="#m407c68cd93" y="56.4749434275"/>
     <use style="fill:#0000ff;stroke:#000000;stroke-width:0.5;" x="326.448" xlink:href="#m407c68cd93" y="56.9898320709"/>
     <use style="fill:#0000ff;stroke:#000000;stroke-width:0.5;" x="330.912" xlink:href="#m407c68cd93" y="56.3805592023"/>
     <use style="fill:#0000ff;stroke:#000000;stroke-width:0.5;" x="335.376" xlink:href="#m407c68cd93" y="52.3610682478"/>
     <use style="fill:#0000ff;stroke:#000000;stroke-width:0.5;" x="339.84" xlink:href="#m407c68cd93" y="47.2146829189"/>
     <use style="fill:#0000ff;stroke:#000000;stroke-width:0.5;" x="344.304" xlink:href="#m407c68cd93" y="46.5673163407"/>
     <use style="fill:#0000ff;stroke:#000000;stroke-width:0.5;" x="348.768" xlink:href="#m407c68cd93" y="48.9394186083"/>
     <use style="fill:#0000ff;stroke:#000000;stroke-width:0.5;" x="353.232" xlink:href="#m407c68cd93" y="41.6278744642"/>
     <use style="fill:#0000ff;stroke:#000000;stroke-width:0.5;" x="357.696" xlink:href="#m407c68cd93" y="56.0649006201"/>
     <use style="fill:#0000ff;stroke:#000000;stroke-width:0.5;" x="362.16" xlink:href="#m407c68cd93" y="37.6233577912"/>
     <use style="fill:#0000ff;stroke:#000000;stroke-width:0.5;" x="366.624" xlink:href="#m407c68cd93" y="44.4115202418"/>
     <use style="fill:#0000ff;stroke:#000000;stroke-width:0.5;" x="371.088" xlink:href="#m407c68cd93" y="53.6408086891"/>
     <use style="fill:#0000ff;stroke:#000000;stroke-width:0.5;" x="375.552" xlink:href="#m407c68cd93" y="41.0795181427"/>
     <use style="fill:#0000ff;stroke:#000000;stroke-width:0.5;" x="380.016" xlink:href="#m407c68cd93" y="44.503114648"/>
     <use style="fill:#0000ff;stroke:#000000;stroke-width:0.5;" x="384.48" xlink:href="#m407c68cd93" y="41.6766143133"/>
     <use style="fill:#0000ff;stroke:#000000;stroke-width:0.5;" x="388.944" xlink:href="#m407c68cd93" y="44.1641984054"/>
     <use style="fill:#0000ff;stroke:#000000;stroke-width:0.5;" x="393.408" xlink:href="#m407c68cd93" y="45.1567137316"/>
     <use style="fill:#0000ff;stroke:#000000;stroke-width:0.5;" x="397.872" xlink:href="#m407c68cd93" y="38.2266444018"/>
     <use style="fill:#0000ff;stroke:#000000;stroke-width:0.5;" x="402.336" xlink:href="#m407c68cd93" y="33.7772097803"/>
     <use style="fill:#0000ff;stroke:#000000;stroke-width:0.5;" x="406.8" xlink:href="#m407c68cd93" y="39.382177332"/>
     <use style="fill:#0000ff;stroke:#000000;stroke-width:0.5;" x="411.264" xlink:href="#m407c68cd93" y="31.0894426698"/>
     <use style="fill:#0000ff;stroke:#000000;stroke-width:0.5;" x="415.728" xlink:href="#m407c68cd93" y="29.768191375"/>
     <use style="fill:#0000ff;stroke:#000000;stroke-width:0.5;" x="420.192" xlink:href="#m407c68cd93" y="32.1416825209"/>
     <use style="fill:#0000ff;stroke:#000000;stroke-width:0.5;" x="424.656" xlink:href="#m407c68cd93" y="31.6442189336"/>
     <use style="fill:#0000ff;stroke:#000000;stroke-width:0.5;" x="429.12" xlink:href="#m407c68cd93" y="31.0796172777"/>
     <use style="fill:#0000ff;stroke:#000000;stroke-width:0.5;" x="433.584" xlink:href="#m407c68cd93" y="36.2842576282"/>
     <use style="fill:#0000ff;stroke:#000000;stroke-width:0.5;" x="438.048" xlink:href="#m407c68cd93" y="31.0080231864"/>
     <use style="fill:#0000ff;stroke:#000000;stroke-width:0.5;" x="442.512" xlink:href="#m407c68cd93" y="35.7169340071"/>
     <use style="fill:#0000ff;stroke:#000000;stroke-width:0.5;" x="446.976" xlink:href="#m407c68cd93" y="40.9634351905"/>
     <use style="fill:#0000ff;stroke:#000000;stroke-width:0.5;" x="451.44" xlink:href="#m407c68cd93" y="30.7109111365"/>
     <use style="fill:#0000ff;stroke:#000000;stroke-width:0.5;" x="455.904" xlink:href="#m407c68cd93" y="29.6515459145"/>
     <use style="fill:#0000ff;stroke:#000000;stroke-width:0.5;" x="460.368" xlink:href="#m407c68cd93" y="24.3601656827"/>
     <use style="fill:#0000ff;stroke:#000000;stroke-width:0.5;" x="464.832" xlink:href="#m407c68cd93" y="27.9601046568"/>
     <use style="fill:#0000ff;stroke:#000000;stroke-width:0.5;" x="469.296" xlink:href="#m407c68cd93" y="18.5292481977"/>
     <use style="fill:#0000ff;stroke:#000000;stroke-width:0.5;" x="473.76" xlink:href="#m407c68cd93" y="38.637288118"/>
     <use style="fill:#0000ff;stroke:#000000;stroke-width:0.5;" x="478.224" xlink:href="#m407c68cd93" y="18.3744871204"/>
     <use style="fill:#0000ff;stroke:#000000;stroke-width:0.5;" x="482.688" xlink:href="#m407c68cd93" y="19.0436655262"/>
     <use style="fill:#0000ff;stroke:#000000;stroke-width:0.5;" x="487.152" xlink:href="#m407c68cd93" y="19.2454496307"/>
     <use style="fill:#0000ff;stroke:#000000;stroke-width:0.5;" x="491.616" xlink:href="#m407c68cd93" y="17.3049486476"/>
     <use style="fill:#0000ff;stroke:#000000;stroke-width:0.5;" x="496.08" xlink:href="#m407c68cd93" y="18.2114649659"/>
     <use style="fill:#0000ff;stroke:#000000;stroke-width:0.5;" x="500.544" xlink:href="#m407c68cd93" y="17.6818089419"/>
     <use style="fill:#0000ff;stroke:#000000;stroke-width:0.5;" x="505.008" xlink:href="#m407c68cd93" y="15.2607769346"/>
     <use style="fill:#0000ff;stroke:#000000;stroke-width:0.5;" x="509.472" xlink:href="#m407c68cd93" y="23.0213714997"/>
     <use style="fill:#0000ff;stroke:#000000;stroke-width:0.5;" x="513.936" xlink:href="#m407c68cd93" y="17.564493074"/>
    </g>
   </g>
   <g id="patch_3">
    <path d="M 518.4 129.6 
L 518.4 14.4 
" style="fill:none;stroke:#000000;stroke-linecap:square;stroke-linejoin:miter;"/>
   </g>
   <g id="patch_4">
    <path d="M 72 129.6 
L 518.4 129.6 
" style="fill:none;stroke:#000000;stroke-linecap:square;stroke-linejoin:miter;"/>
   </g>
   <g id="patch_5">
    <path d="M 72 129.6 
L 72 14.4 
" style="fill:none;stroke:#000000;stroke-linecap:square;stroke-linejoin:miter;"/>
   </g>
   <g id="patch_6">
    <path d="M 72 14.4 
L 518.4 14.4 
" style="fill:none;stroke:#000000;stroke-linecap:square;stroke-linejoin:miter;"/>
   </g>
   <g id="matplotlib.axis_1">
    <g id="xtick_1">
     <g id="line2d_2">
      <defs>
       <path d="M 0 0 
L 0 -4 
" id="m36543b7209" style="stroke:#000000;stroke-width:0.5;"/>
      </defs>
      <g>
       <use style="stroke:#000000;stroke-width:0.5;" x="72.0" xlink:href="#m36543b7209" y="129.6"/>
      </g>
     </g>
     <g id="line2d_3">
      <defs>
       <path d="M 0 0 
L 0 4 
" id="m95ed4c3da2" style="stroke:#000000;stroke-width:0.5;"/>
      </defs>
      <g>
       <use style="stroke:#000000;stroke-width:0.5;" x="72.0" xlink:href="#m95ed4c3da2" y="14.4"/>
      </g>
     </g>
     <g id="text_1">
      <!-- 0 -->
      <defs>
       <path d="M 31.78125 66.40625 
Q 24.171875 66.40625 20.328125 58.90625 
Q 16.5 51.421875 16.5 36.375 
Q 16.5 21.390625 20.328125 13.890625 
Q 24.171875 6.390625 31.78125 6.390625 
Q 39.453125 6.390625 43.28125 13.890625 
Q 47.125 21.390625 47.125 36.375 
Q 47.125 51.421875 43.28125 58.90625 
Q 39.453125 66.40625 31.78125 66.40625 
M 31.78125 74.21875 
Q 44.046875 74.21875 50.515625 64.515625 
Q 56.984375 54.828125 56.984375 36.375 
Q 56.984375 17.96875 50.515625 8.265625 
Q 44.046875 -1.421875 31.78125 -1.421875 
Q 19.53125 -1.421875 13.0625 8.265625 
Q 6.59375 17.96875 6.59375 36.375 
Q 6.59375 54.828125 13.0625 64.515625 
Q 19.53125 74.21875 31.78125 74.21875 
" id="BitstreamVeraSans-Roman-30"/>
      </defs>
      <g transform="translate(68.1825 142.718125)scale(0.12 -0.12)">
       <use xlink:href="#BitstreamVeraSans-Roman-30"/>
      </g>
     </g>
    </g>
    <g id="xtick_2">
     <g id="line2d_4">
      <g>
       <use style="stroke:#000000;stroke-width:0.5;" x="161.28" xlink:href="#m36543b7209" y="129.6"/>
      </g>
     </g>
     <g id="line2d_5">
      <g>
       <use style="stroke:#000000;stroke-width:0.5;" x="161.28" xlink:href="#m95ed4c3da2" y="14.4"/>
      </g>
     </g>
     <g id="text_2">
      <!-- 20 -->
      <defs>
       <path d="M 19.1875 8.296875 
L 53.609375 8.296875 
L 53.609375 0 
L 7.328125 0 
L 7.328125 8.296875 
Q 12.9375 14.109375 22.625 23.890625 
Q 32.328125 33.6875 34.8125 36.53125 
Q 39.546875 41.84375 41.421875 45.53125 
Q 43.3125 49.21875 43.3125 52.78125 
Q 43.3125 58.59375 39.234375 62.25 
Q 35.15625 65.921875 28.609375 65.921875 
Q 23.96875 65.921875 18.8125 64.3125 
Q 13.671875 62.703125 7.8125 59.421875 
L 7.8125 69.390625 
Q 13.765625 71.78125 18.9375 73 
Q 24.125 74.21875 28.421875 74.21875 
Q 39.75 74.21875 46.484375 68.546875 
Q 53.21875 62.890625 53.21875 53.421875 
Q 53.21875 48.921875 51.53125 44.890625 
Q 49.859375 40.875 45.40625 35.40625 
Q 44.1875 33.984375 37.640625 27.21875 
Q 31.109375 20.453125 19.1875 8.296875 
" id="BitstreamVeraSans-Roman-32"/>
      </defs>
      <g transform="translate(153.645 142.718125)scale(0.12 -0.12)">
       <use xlink:href="#BitstreamVeraSans-Roman-32"/>
       <use x="63.623046875" xlink:href="#BitstreamVeraSans-Roman-30"/>
      </g>
     </g>
    </g>
    <g id="xtick_3">
     <g id="line2d_6">
      <g>
       <use style="stroke:#000000;stroke-width:0.5;" x="250.56" xlink:href="#m36543b7209" y="129.6"/>
      </g>
     </g>
     <g id="line2d_7">
      <g>
       <use style="stroke:#000000;stroke-width:0.5;" x="250.56" xlink:href="#m95ed4c3da2" y="14.4"/>
      </g>
     </g>
     <g id="text_3">
      <!-- 40 -->
      <defs>
       <path d="M 37.796875 64.3125 
L 12.890625 25.390625 
L 37.796875 25.390625 
z
M 35.203125 72.90625 
L 47.609375 72.90625 
L 47.609375 25.390625 
L 58.015625 25.390625 
L 58.015625 17.1875 
L 47.609375 17.1875 
L 47.609375 0 
L 37.796875 0 
L 37.796875 17.1875 
L 4.890625 17.1875 
L 4.890625 26.703125 
z
" id="BitstreamVeraSans-Roman-34"/>
      </defs>
      <g transform="translate(242.925 142.718125)scale(0.12 -0.12)">
       <use xlink:href="#BitstreamVeraSans-Roman-34"/>
       <use x="63.623046875" xlink:href="#BitstreamVeraSans-Roman-30"/>
      </g>
     </g>
    </g>
    <g id="xtick_4">
     <g id="line2d_8">
      <g>
       <use style="stroke:#000000;stroke-width:0.5;" x="339.84" xlink:href="#m36543b7209" y="129.6"/>
      </g>
     </g>
     <g id="line2d_9">
      <g>
       <use style="stroke:#000000;stroke-width:0.5;" x="339.84" xlink:href="#m95ed4c3da2" y="14.4"/>
      </g>
     </g>
     <g id="text_4">
      <!-- 60 -->
      <defs>
       <path d="M 33.015625 40.375 
Q 26.375 40.375 22.484375 35.828125 
Q 18.609375 31.296875 18.609375 23.390625 
Q 18.609375 15.53125 22.484375 10.953125 
Q 26.375 6.390625 33.015625 6.390625 
Q 39.65625 6.390625 43.53125 10.953125 
Q 47.40625 15.53125 47.40625 23.390625 
Q 47.40625 31.296875 43.53125 35.828125 
Q 39.65625 40.375 33.015625 40.375 
M 52.59375 71.296875 
L 52.59375 62.3125 
Q 48.875 64.0625 45.09375 64.984375 
Q 41.3125 65.921875 37.59375 65.921875 
Q 27.828125 65.921875 22.671875 59.328125 
Q 17.53125 52.734375 16.796875 39.40625 
Q 19.671875 43.65625 24.015625 45.921875 
Q 28.375 48.1875 33.59375 48.1875 
Q 44.578125 48.1875 50.953125 41.515625 
Q 57.328125 34.859375 57.328125 23.390625 
Q 57.328125 12.15625 50.6875 5.359375 
Q 44.046875 -1.421875 33.015625 -1.421875 
Q 20.359375 -1.421875 13.671875 8.265625 
Q 6.984375 17.96875 6.984375 36.375 
Q 6.984375 53.65625 15.1875 63.9375 
Q 23.390625 74.21875 37.203125 74.21875 
Q 40.921875 74.21875 44.703125 73.484375 
Q 48.484375 72.75 52.59375 71.296875 
" id="BitstreamVeraSans-Roman-36"/>
      </defs>
      <g transform="translate(332.205 142.718125)scale(0.12 -0.12)">
       <use xlink:href="#BitstreamVeraSans-Roman-36"/>
       <use x="63.623046875" xlink:href="#BitstreamVeraSans-Roman-30"/>
      </g>
     </g>
    </g>
    <g id="xtick_5">
     <g id="line2d_10">
      <g>
       <use style="stroke:#000000;stroke-width:0.5;" x="429.12" xlink:href="#m36543b7209" y="129.6"/>
      </g>
     </g>
     <g id="line2d_11">
      <g>
       <use style="stroke:#000000;stroke-width:0.5;" x="429.12" xlink:href="#m95ed4c3da2" y="14.4"/>
      </g>
     </g>
     <g id="text_5">
      <!-- 80 -->
      <defs>
       <path d="M 31.78125 34.625 
Q 24.75 34.625 20.71875 30.859375 
Q 16.703125 27.09375 16.703125 20.515625 
Q 16.703125 13.921875 20.71875 10.15625 
Q 24.75 6.390625 31.78125 6.390625 
Q 38.8125 6.390625 42.859375 10.171875 
Q 46.921875 13.96875 46.921875 20.515625 
Q 46.921875 27.09375 42.890625 30.859375 
Q 38.875 34.625 31.78125 34.625 
M 21.921875 38.8125 
Q 15.578125 40.375 12.03125 44.71875 
Q 8.5 49.078125 8.5 55.328125 
Q 8.5 64.0625 14.71875 69.140625 
Q 20.953125 74.21875 31.78125 74.21875 
Q 42.671875 74.21875 48.875 69.140625 
Q 55.078125 64.0625 55.078125 55.328125 
Q 55.078125 49.078125 51.53125 44.71875 
Q 48 40.375 41.703125 38.8125 
Q 48.828125 37.15625 52.796875 32.3125 
Q 56.78125 27.484375 56.78125 20.515625 
Q 56.78125 9.90625 50.3125 4.234375 
Q 43.84375 -1.421875 31.78125 -1.421875 
Q 19.734375 -1.421875 13.25 4.234375 
Q 6.78125 9.90625 6.78125 20.515625 
Q 6.78125 27.484375 10.78125 32.3125 
Q 14.796875 37.15625 21.921875 38.8125 
M 18.3125 54.390625 
Q 18.3125 48.734375 21.84375 45.5625 
Q 25.390625 42.390625 31.78125 42.390625 
Q 38.140625 42.390625 41.71875 45.5625 
Q 45.3125 48.734375 45.3125 54.390625 
Q 45.3125 60.0625 41.71875 63.234375 
Q 38.140625 66.40625 31.78125 66.40625 
Q 25.390625 66.40625 21.84375 63.234375 
Q 18.3125 60.0625 18.3125 54.390625 
" id="BitstreamVeraSans-Roman-38"/>
      </defs>
      <g transform="translate(421.485 142.718125)scale(0.12 -0.12)">
       <use xlink:href="#BitstreamVeraSans-Roman-38"/>
       <use x="63.623046875" xlink:href="#BitstreamVeraSans-Roman-30"/>
      </g>
     </g>
    </g>
    <g id="xtick_6">
     <g id="line2d_12">
      <g>
       <use style="stroke:#000000;stroke-width:0.5;" x="518.4" xlink:href="#m36543b7209" y="129.6"/>
      </g>
     </g>
     <g id="line2d_13">
      <g>
       <use style="stroke:#000000;stroke-width:0.5;" x="518.4" xlink:href="#m95ed4c3da2" y="14.4"/>
      </g>
     </g>
     <g id="text_6">
      <!-- 100 -->
      <defs>
       <path d="M 12.40625 8.296875 
L 28.515625 8.296875 
L 28.515625 63.921875 
L 10.984375 60.40625 
L 10.984375 69.390625 
L 28.421875 72.90625 
L 38.28125 72.90625 
L 38.28125 8.296875 
L 54.390625 8.296875 
L 54.390625 0 
L 12.40625 0 
z
" id="BitstreamVeraSans-Roman-31"/>
      </defs>
      <g transform="translate(506.9475 142.718125)scale(0.12 -0.12)">
       <use xlink:href="#BitstreamVeraSans-Roman-31"/>
       <use x="63.623046875" xlink:href="#BitstreamVeraSans-Roman-30"/>
       <use x="127.24609375" xlink:href="#BitstreamVeraSans-Roman-30"/>
      </g>
     </g>
    </g>
   </g>
   <g id="matplotlib.axis_2">
    <g id="ytick_1">
     <g id="line2d_14">
      <defs>
       <path d="M 0 0 
L 4 0 
" id="mb08dd2ee1e" style="stroke:#000000;stroke-width:0.5;"/>
      </defs>
      <g>
       <use style="stroke:#000000;stroke-width:0.5;" x="72.0" xlink:href="#mb08dd2ee1e" y="129.6"/>
      </g>
     </g>
     <g id="line2d_15">
      <defs>
       <path d="M 0 0 
L -4 0 
" id="m81eea3ab4d" style="stroke:#000000;stroke-width:0.5;"/>
      </defs>
      <g>
       <use style="stroke:#000000;stroke-width:0.5;" x="518.4" xlink:href="#m81eea3ab4d" y="129.6"/>
      </g>
     </g>
     <g id="text_7">
      <!-- −5 -->
      <defs>
       <path d="M 10.796875 72.90625 
L 49.515625 72.90625 
L 49.515625 64.59375 
L 19.828125 64.59375 
L 19.828125 46.734375 
Q 21.96875 47.46875 24.109375 47.828125 
Q 26.265625 48.1875 28.421875 48.1875 
Q 40.625 48.1875 47.75 41.5 
Q 54.890625 34.8125 54.890625 23.390625 
Q 54.890625 11.625 47.5625 5.09375 
Q 40.234375 -1.421875 26.90625 -1.421875 
Q 22.3125 -1.421875 17.546875 -0.640625 
Q 12.796875 0.140625 7.71875 1.703125 
L 7.71875 11.625 
Q 12.109375 9.234375 16.796875 8.0625 
Q 21.484375 6.890625 26.703125 6.890625 
Q 35.15625 6.890625 40.078125 11.328125 
Q 45.015625 15.765625 45.015625 23.390625 
Q 45.015625 31 40.078125 35.4375 
Q 35.15625 39.890625 26.703125 39.890625 
Q 22.75 39.890625 18.8125 39.015625 
Q 14.890625 38.140625 10.796875 36.28125 
z
" id="BitstreamVeraSans-Roman-35"/>
       <path d="M 10.59375 35.5 
L 73.1875 35.5 
L 73.1875 27.203125 
L 10.59375 27.203125 
z
" id="BitstreamVeraSans-Roman-2212"/>
      </defs>
      <g transform="translate(50.309375 132.91125)scale(0.12 -0.12)">
       <use xlink:href="#BitstreamVeraSans-Roman-2212"/>
       <use x="83.7890625" xlink:href="#BitstreamVeraSans-Roman-35"/>
      </g>
     </g>
    </g>
    <g id="ytick_2">
     <g id="line2d_16">
      <g>
       <use style="stroke:#000000;stroke-width:0.5;" x="72.0" xlink:href="#mb08dd2ee1e" y="106.56"/>
      </g>
     </g>
     <g id="line2d_17">
      <g>
       <use style="stroke:#000000;stroke-width:0.5;" x="518.4" xlink:href="#m81eea3ab4d" y="106.56"/>
      </g>
     </g>
     <g id="text_8">
      <!-- 0 -->
      <g transform="translate(60.365 109.87125)scale(0.12 -0.12)">
       <use xlink:href="#BitstreamVeraSans-Roman-30"/>
      </g>
     </g>
    </g>
    <g id="ytick_3">
     <g id="line2d_18">
      <g>
       <use style="stroke:#000000;stroke-width:0.5;" x="72.0" xlink:href="#mb08dd2ee1e" y="83.52"/>
      </g>
     </g>
     <g id="line2d_19">
      <g>
       <use style="stroke:#000000;stroke-width:0.5;" x="518.4" xlink:href="#m81eea3ab4d" y="83.52"/>
      </g>
     </g>
     <g id="text_9">
      <!-- 5 -->
      <g transform="translate(60.365 86.83125)scale(0.12 -0.12)">
       <use xlink:href="#BitstreamVeraSans-Roman-35"/>
      </g>
     </g>
    </g>
    <g id="ytick_4">
     <g id="line2d_20">
      <g>
       <use style="stroke:#000000;stroke-width:0.5;" x="72.0" xlink:href="#mb08dd2ee1e" y="60.48"/>
      </g>
     </g>
     <g id="line2d_21">
      <g>
       <use style="stroke:#000000;stroke-width:0.5;" x="518.4" xlink:href="#m81eea3ab4d" y="60.48"/>
      </g>
     </g>
     <g id="text_10">
      <!-- 10 -->
      <g transform="translate(52.73 63.79125)scale(0.12 -0.12)">
       <use xlink:href="#BitstreamVeraSans-Roman-31"/>
       <use x="63.623046875" xlink:href="#BitstreamVeraSans-Roman-30"/>
      </g>
     </g>
    </g>
    <g id="ytick_5">
     <g id="line2d_22">
      <g>
       <use style="stroke:#000000;stroke-width:0.5;" x="72.0" xlink:href="#mb08dd2ee1e" y="37.44"/>
      </g>
     </g>
     <g id="line2d_23">
      <g>
       <use style="stroke:#000000;stroke-width:0.5;" x="518.4" xlink:href="#m81eea3ab4d" y="37.44"/>
      </g>
     </g>
     <g id="text_11">
      <!-- 15 -->
      <g transform="translate(52.73 40.75125)scale(0.12 -0.12)">
       <use xlink:href="#BitstreamVeraSans-Roman-31"/>
       <use x="63.623046875" xlink:href="#BitstreamVeraSans-Roman-35"/>
      </g>
     </g>
    </g>
    <g id="ytick_6">
     <g id="line2d_24">
      <g>
       <use style="stroke:#000000;stroke-width:0.5;" x="72.0" xlink:href="#mb08dd2ee1e" y="14.4"/>
      </g>
     </g>
     <g id="line2d_25">
      <g>
       <use style="stroke:#000000;stroke-width:0.5;" x="518.4" xlink:href="#m81eea3ab4d" y="14.4"/>
      </g>
     </g>
     <g id="text_12">
      <!-- 20 -->
      <g transform="translate(52.73 17.71125)scale(0.12 -0.12)">
       <use xlink:href="#BitstreamVeraSans-Roman-32"/>
       <use x="63.623046875" xlink:href="#BitstreamVeraSans-Roman-30"/>
      </g>
     </g>
    </g>
   </g>
  </g>
 </g>
 <defs>
  <clipPath id="p3de8af1a74">
   <rect height="115.2" width="446.4" x="72.0" y="14.4"/>
  </clipPath>
 </defs>
</svg>
